<?xml version="1.0" encoding="utf-8"?>
<!-- Generator: Adobe Illustrator 18.1.0, SVG Export Plug-In . SVG Version: 6.00 Build 0)  -->
<svg version="1.0" id="Layer_1" xmlns="http://www.w3.org/2000/svg" xmlns:xlink="http://www.w3.org/1999/xlink" x="0px" y="0px"
	 viewBox="0 0 150 150" enable-background="new 0 0 150 150" xml:space="preserve">
<g>
	<g>
		<g>
			<path fill="#343432" d="M57,102.1c8.5,0.2,16.4,7.3,19.4,13.3c7.4,14.8-9.1,25.5-9.1,25.5s14.9-3.9,17.9-15.5
				c0,0,1.5,2.8,0.6,6.8c-1.3,5.4-6.4,8.7-6.4,8.7s17.2-4.2,15.8-29.7c-0.4-7.1-2.9-18.4-9-27.4c5.1,10.9,1.6,22.1-10.8,20.6
				C70.1,103.8,65.5,100.2,57,102.1z"/>
		</g>
		<path fill="#C32026" d="M94.9,89.7c0-0.1,0-0.1,0-0.2c0-3.5,2.8-6.4,6.4-6.4c3.5,0,6.4,2.8,6.4,6.4c0,3.5-2.8,6.4-6.4,6.4
			c-0.1,0-0.1,0-0.2,0h-6.1V89.7z"/>
		<path fill="#2EACE3" d="M94.4,56.5c0-0.1,0-0.2,0-0.3c0-4.2-3.4-7.5-7.5-7.5c-4.2,0-7.5,3.4-7.5,7.5c0,4.2,3.4,7.5,7.5,7.5
			c0.1,0,0.2,0,0.3,0h7.3V56.5z"/>
		<path fill="#30ACA4" d="M82.8,84.1c-0.1,0-0.2,0-0.3,0c-5.5,0-9.9-4.4-9.9-9.9c0-5.5,4.4-9.9,9.9-9.9c5.5,0,9.9,4.4,9.9,9.9
			c0,0.1,0,0.2,0,0.3v9.5H82.8z"/>
		<path fill="#E95324" d="M105.7,78.8c0.1,0,0.3,0,0.4,0c6.2,0,11.2-5,11.2-11.2c0-6.2-5-11.2-11.2-11.2c-6.2,0-11.2,5-11.2,11.2
			c0,0.1,0,0.3,0,0.4v10.8H105.7z"/>
		<path fill="#FBBF15" d="M103.9,46.7c0-0.1,0-0.1,0-0.2c0-3,2.4-5.5,5.5-5.5c3,0,5.5,2.4,5.5,5.5c0,3-2.4,5.5-5.5,5.5
			c-0.1,0-0.1,0-0.2,0h-5.3V46.7z"/>
		<path fill="#CD5455" d="M92.5,32.9c0-0.1,0-0.2,0-0.3c0-4.2,3.4-7.7,7.7-7.7c4.2,0,7.7,3.4,7.7,7.7c0,4.2-3.4,7.7-7.7,7.7
			c-0.1,0-0.2,0-0.3,0h-7.4V32.9z"/>
		<path fill="#38769B" d="M77.6,45.1c-0.1,0-0.2,0-0.3,0c-5.2,0-9.4-4.2-9.4-9.4c0-5.2,4.2-9.4,9.4-9.4c5.2,0,9.4,4.2,9.4,9.4
			c0,0.1,0,0.2,0,0.3v9H77.6z"/>
		<path fill="#C1D72F" d="M94.4,15.4c0-0.1,0-0.1,0-0.2c0-3-2.4-5.5-5.5-5.5s-5.5,2.4-5.5,5.5s2.4,5.5,5.5,5.5c0.1,0,0.1,0,0.2,0
			h5.3V15.4z"/>
		<path fill="#F89939" d="M73.8,100.8c-0.1,0-0.2,0-0.3,0c-4.2-0.7-7-4.7-6.3-8.8c0.7-4.2,4.7-7,8.8-6.3c4.2,0.7,7,4.7,6.3,8.8
			c0,0.1,0,0.2,0,0.3l-1.2,7.3L73.8,100.8z"/>
		<path fill="#34C1F1" d="M49.9,65.9c0-0.1-0.1-0.2-0.1-0.2c-2.1-3.6-6.7-4.8-10.3-2.6c-3.6,2.1-4.8,6.7-2.6,10.3
			c2.1,3.6,6.7,4.8,10.3,2.6c0.1,0,0.1-0.1,0.2-0.1l6.2-3.7L49.9,65.9z"/>
		<path fill="#C32026" d="M56.4,97.3c-0.1,0.1-0.2,0.1-0.3,0.2c-5.1,3-11.7,1.4-14.8-3.8c-3-5.1-1.4-11.7,3.8-14.8
			s11.7-1.4,14.8,3.8c0.1,0.1,0.1,0.2,0.2,0.3l5.3,8.9L56.4,97.3z"/>
		<path fill="#94BA64" d="M70.4,69c0.1-0.1,0.2-0.1,0.3-0.2c5.3-3.2,7.1-10.1,3.9-15.4c-3.2-5.3-10.1-7.1-15.4-3.9
			c-5.3,3.2-7.1,10.1-3.9,15.4c0.1,0.1,0.1,0.2,0.2,0.3l5.5,9.3L70.4,69z"/>
		<path fill="#F15B25" d="M56.4,27.7c0-0.1-0.1-0.1-0.1-0.2c-1.5-2.6-0.7-5.9,1.9-7.5c2.6-1.5,5.9-0.7,7.5,1.9
			c1.5,2.6,0.7,5.9-1.9,7.5c-0.1,0-0.1,0.1-0.2,0.1l-4.5,2.7L56.4,27.7z"/>
		<path fill="#EF8126" d="M44.7,44.1c0-0.1-0.1-0.1-0.1-0.2c-2.2-3.7-1-8.4,2.7-10.5c3.6-2.2,8.4-1,10.5,2.7c2.2,3.6,1,8.4-2.7,10.5
			c-0.1,0-0.2,0.1-0.2,0.1l-6.4,3.8L44.7,44.1z"/>
		<path fill="#FBBF15" d="M36.6,61.2c-0.1,0.1-0.2,0.1-0.3,0.2c-4.4,2.6-10.2,1.2-12.8-3.3s-1.2-10.2,3.3-12.8
			c4.4-2.6,10.2-1.2,12.8,3.3c0.1,0.1,0.1,0.2,0.2,0.3l4.6,7.8L36.6,61.2z"/>
		<path fill="#C1D72F" d="M36.7,31.7c0-0.1-0.1-0.1-0.1-0.2c-1.5-2.6-4.9-3.5-7.5-1.9c-2.6,1.5-3.5,4.9-1.9,7.5
			c1.5,2.6,4.9,3.4,7.5,1.9c0.1,0,0.1-0.1,0.2-0.1l4.5-2.7L36.7,31.7z"/>
	</g>
</g>
</svg>
